<svg  height="16px" width="16px" xmlns="http://www.w3.org/2000/svg" viewBox="80 80 140 140" fill="#415E72" >
    <path d="M215.606,84.394c-5.857-5.857-15.355-5.857-21.213,0L150,128.787l-44.394-44.393c-5.857-5.857-15.355-5.857-21.213,0 c-5.858,5.857-5.858,15.355,0,21.213L128.787,150l-44.393,44.394c-5.858,5.857-5.858,15.355,0,21.213 C87.322,218.535,91.161,220,95,220s7.678-1.465,10.606-4.394L150,171.213l44.394,44.393C197.322,218.535,201.161,220,205,220 s7.678-1.465,10.606-4.394c5.858-5.857,5.858-15.355,0-21.213L171.213,150l44.393-44.394 C221.464,99.749,221.464,90.251,215.606,84.394z"/>
</svg>
